<?xml version="1.0" encoding="UTF-8"?>
<svg id="Vketcloud_Logo" xmlns="http://www.w3.org/2000/svg" viewBox="0 0 1240 330">
  <defs>
    <style>
      .cls-1 {
        fill: #0052aa;
      }

      .cls-1, .cls-2 {
        stroke-width: 0px;
      }

      .cls-2 {
        fill: #ff406d;
      }
    </style>
  </defs>
  <g id="BLUE">
    <path id="icon" class="cls-1" d="m247.41,209.7c-.66,1.25-1.56,2.33-2.64,3.21-5.77,4.68-20.48,15.15-42.52,29.92-6.75,4.52-15.62-.55-15.62-8.93v-57.58c0-4.02,2.17-7.69,5.61-9.49,15.06-7.86,30.32-15.69,45.18-23.33,4.89-2.51,9.84-5.05,14.79-7.6,7.36-3.79,15.72,2.65,14.51,11.13-1,7.01-2.4,14.14-4.13,21.18l20.26-10.46c3.08-16.28,4.23-32.16,3.14-45.39-.47-5.88-5.15-11.18-11.65-14.02-34.22-14.98-68.86-29.07-95.69-41.57-5.09-2.36-10.83-2.36-15.92,0-26.83,12.5-61.47,26.58-95.69,41.57-6.5,2.84-11.18,8.14-11.65,14.02-2.54,30.95,7.08,76.45,25.37,107.55,2.82,4.77,48.82,34.44,75.26,50.92,8.95,5.58,20.28,5.56,29.22-.03,26.55-16.62,72.54-46.09,75.37-50.89,5.66-9.63,10.49-20.64,14.39-32.18l-22.74,11.74c-1.53,3.57-3.15,7-4.85,10.23Z"/>
    <g id="logo">
      <g>
        <path class="cls-2" d="m755.44,122.07h63.81c3.24,0,5.87,2.63,5.87,5.87v24.21c0,3.24-2.63,5.87-5.87,5.87h-12.22c-3.24,0-5.87-2.63-5.87-5.87v-6.23c0-3.24-2.63-5.87-5.87-5.87h-22.58c-3.24,0-5.87,2.63-5.87,5.87v38.16c0,3.24,2.63,5.87,5.87,5.87h46.53c3.24,0,5.87,2.63,5.87,5.87v6.23c0,3.24-2.63,5.87-5.87,5.87h-57.94c-10.17,0-18.41-8.25-18.41-18.42v-54.89c0-6.93,5.61-12.55,12.54-12.55Z"/>
        <path class="cls-2" d="m839.63,122.07h12.61c3.13,0,5.67,2.54,5.67,5.67v56.54c0,3.13,2.54,5.67,5.67,5.67h34.95c3.13,0,5.67,2.54,5.67,5.67v6.63c0,3.13-2.54,5.67-5.67,5.67h-58.9c-3.13,0-5.67-2.54-5.67-5.67v-74.51c0-3.13,2.54-5.67,5.67-5.67Z"/>
        <path class="cls-2" d="m990.78,207.93h-58.61c-10.56,0-19.12-8.57-19.12-19.14v-60.13c0-3.64,2.95-6.59,6.58-6.59h72.27c3.64,0,6.58,2.95,6.58,6.59v71.57c0,4.26-3.45,7.71-7.7,7.71Zm-22.83-67.88h-24.37c-3.64,0-6.58,2.95-6.58,6.59v36.73c0,3.64,2.95,6.59,6.58,6.59h24.37c3.64,0,6.58-2.95,6.58-6.59v-36.73c0-3.64-2.95-6.59-6.58-6.59Z"/>
        <path class="cls-2" d="m1093.94,191.59c0,9.03-7.31,16.34-16.33,16.34h-53.96c-9.02,0-16.33-7.32-16.33-16.34v-65.72c0-2.1,1.7-3.79,3.79-3.79h16.37c2.09,0,3.79,1.7,3.79,3.79v60.29c0,2.1,1.7,3.79,3.79,3.79h31.13c2.09,0,3.79-1.7,3.79-3.79v-60.29c0-2.1,1.7-3.79,3.79-3.79h16.37c2.09,0,3.79,1.7,3.79,3.79v65.72Z"/>
        <path class="cls-2" d="m1182.62,188.37l-11.22,17.27c-.93,1.43-2.51,2.29-4.22,2.29h-59.37c-2.78,0-5.03-2.25-5.03-5.03v-75.79c0-2.78,2.25-5.03,5.03-5.03h63.04c1.97,0,3.76,1.15,4.58,2.95l8.24,18.12c.87,1.92,1.32,4,1.32,6.1v31.11c0,2.85-.83,5.64-2.38,8.03Zm-21.02-41.79l-3.04-4.38c-.94-1.36-2.48-2.16-4.13-2.16h-25.17c-2.78,0-5.03,2.25-5.03,5.03v39.84c0,2.78,2.25,5.03,5.03,5.03h24.11c1.54,0,2.99-.7,3.94-1.91l4.1-5.17c.71-.89,1.09-1.99,1.09-3.13v-30.28c0-1.03-.31-2.03-.9-2.87Z"/>
      </g>
      <g>
        <path class="cls-1" d="m559.51,122.07h61.28c2.32,0,4.2,1.88,4.2,4.2v9.57c0,2.32-1.88,4.2-4.2,4.2h-49.87c-2.32,0-4.2,1.88-4.2,4.2v9.57c0,2.32,1.88,4.2,4.2,4.2h43.88c2.32,0,4.2,1.88,4.2,4.2v9.57c0,2.32-1.88,4.2-4.2,4.2h-43.88c-2.32,0-4.2,1.88-4.2,4.2v5.54c0,2.32,1.88,4.2,4.2,4.2h49.87c2.32,0,4.2,1.88,4.2,4.2v9.57c0,2.32-1.88,4.2-4.2,4.2h-73.82c-2.32,0-4.2-1.88-4.2-4.2v-64.91c0-9.25,7.49-16.75,16.74-16.75Z"/>
        <path class="cls-1" d="m534.15,207.93h-14.78c-1.49,0-2.85-.84-3.52-2.18l-14.98-27.57c-.67-1.34-2.03-2.18-3.52-2.18h-15.67c-2.17,0-3.93,1.76-3.93,3.94v24.06c0,2.17-1.76,3.94-3.93,3.94h-16.09c-2.17,0-3.93-1.76-3.93-3.94v-77.99c0-2.17,1.76-3.94,3.93-3.94h16.09c2.17,0,3.93,1.76,3.93,3.94v28.09c0,2.17,1.76,3.94,3.93,3.94h15.12c1.52,0,2.14-.87,2.8-2.24l16.27-31.48c.65-1.37,2.03-2.24,3.55-2.24h15.02c2.91,0,4.81,3.06,3.53,5.67l-18.4,37.45c-.56,1.14-.54,2.49.07,3.61l17.98,33.32c1.42,2.62-.48,5.81-3.46,5.81Z"/>
        <path class="cls-1" d="m415.65,202.73c-2.22,5.2-4.74,5.2-8.63,5.2h-22.31c-3.89,0-6.91-1.02-8.63-5.2s-24.96-60.66-31.06-75.48c-1.04-2.54,1.18-5.19,4.35-5.19h16.05c2.01,0,3.79,1.11,4.39,2.74l22.37,53.35c1.4,3.45,6.28,3.44,7.67-.02l22.09-53.33c.6-1.63,2.38-2.74,4.39-2.74h16.04c3.17,0,5.39,2.65,4.35,5.19-6.09,14.79-28.83,70.28-31.06,75.48Z"/>
        <path class="cls-1" d="m634.42,122.07h78.65c1.74,0,3.16,1.41,3.16,3.16v11.66c0,1.74-1.41,3.16-3.16,3.16h-24.2c-1.74,0-3.16,1.41-3.16,3.16v61.57c0,1.74-1.41,3.16-3.16,3.16h-17.64c-1.74,0-3.16-1.41-3.16-3.16v-61.57c0-1.74-1.41-3.16-3.16-3.16h-24.19c-1.74,0-3.16-1.41-3.16-3.16v-11.66c0-1.74,1.41-3.16,3.16-3.16Z"/>
      </g>
    </g>
  </g>
</svg>